<?xml version="1.0" standalone="no"?><!DOCTYPE svg PUBLIC "-//W3C//DTD SVG 1.1//EN" "http://www.w3.org/Graphics/SVG/1.1/DTD/svg11.dtd"><svg t="1779793144411" class="icon" viewBox="0 0 1024 1024" version="1.1" xmlns="http://www.w3.org/2000/svg" p-id="11340" xmlns:xlink="http://www.w3.org/1999/xlink" width="200" height="200"><path d="M512.05141074 62c41.43722168 0 74.95715742 33.6227581 74.95715743 74.95715742v750.08568516c0 41.43722168-33.6227581 74.95715742-74.95715742 74.95715742-41.43722168 0-74.95715742-33.6227581-74.95715742-74.95715742V136.95715742C436.99143184 95.6227581 470.61418906 62 512.05141074 62z" p-id="11341"></path><path d="M136.95715742 212.01713721c41.43722168 0 74.95715742 33.6227581 74.95715742 74.95715742v450.05141074c0 41.43722168-33.6227581 74.95715742-74.95715742 74.95715742-41.43722168 0-74.95715742-33.6227581-74.95715742-74.95715742V286.97429463c0-41.43722168 33.6227581-74.95715742 74.95715742-74.95715742z" p-id="11342"></path><path d="M887.04284258 212.01713721c41.43722168 0 74.95715742 33.6227581 74.95715742 74.95715742v450.05141074c0 41.43722168-33.6227581 74.95715742-74.95715742 74.95715742-41.43722168 0-74.95715742-33.6227581-74.95715742-74.95715742V286.97429463c0-41.43722168 33.6227581-74.95715742 74.95715742-74.95715742z" p-id="11343"></path></svg>