<?xml version="1.0" standalone="no"?><!DOCTYPE svg PUBLIC "-//W3C//DTD SVG 1.1//EN" "http://www.w3.org/Graphics/SVG/1.1/DTD/svg11.dtd"><svg t="1779793127223" class="icon" viewBox="0 0 1024 1024" version="1.1" xmlns="http://www.w3.org/2000/svg" p-id="10261" xmlns:xlink="http://www.w3.org/1999/xlink" width="200" height="200"><path d="M803.226541 454.644949c16.474868 0 29.777556 13.302688 29.777556 29.777555s-13.302688 29.777556-29.777556 29.777556H213.917458c-16.474868 0-29.777556-13.302688-29.777556-29.777556s13.302688-29.777556 29.777556-29.777555h589.309083zM243.388028 245.48576c18.009793 0 32.64275 14.632957 32.64275 32.64275v117.882282c0 18.009793-14.632957 32.64275-32.64275 32.642751s-32.64275-14.632957-32.64275-32.642751V278.12851c0-18.009793 14.632957-32.64275 32.64275-32.64275zM243.388028 540.089138c18.009793 0 32.64275 14.632957 32.64275 32.64275v176.823423c0 18.009793-14.632957 32.64275-32.64275 32.64275s-32.64275-14.632957-32.64275-32.64275V572.731888c0-18.009793 14.632957-32.64275 32.64275-32.64275zM455.51474 245.48576c18.009793 0 32.64275 14.632957 32.64275 32.64275v117.882282c0 18.009793-14.632957 32.64275-32.64275 32.642751-18.009793 0-32.64275-14.632957-32.64275-32.642751V278.12851c0-18.009793 14.632957-32.64275 32.64275-32.64275zM455.51474 540.191466c18.009793 0 32.64275 14.632957 32.64275 32.64275v235.764565c0 18.009793-14.632957 32.64275-32.64275 32.64275-18.009793 0-32.64275-14.632957-32.64275-32.64275V572.834216c0-18.009793 14.632957-32.64275 32.64275-32.64275zM667.641451 245.48576c18.009793 0 32.64275 14.632957 32.64275 32.64275v117.882282c0 18.009793-14.632957 32.64275-32.64275 32.642751s-32.64275-14.632957-32.64275-32.642751V278.12851c0-18.009793 14.632957-32.64275 32.64275-32.64275zM773.755971 245.48576c18.009793 0 32.64275 14.632957 32.64275 32.64275v117.882282c0 18.009793-14.632957 32.64275-32.64275 32.642751s-32.64275-14.632957-32.64275-32.642751V278.12851c-0.102328-18.009793 14.530629-32.64275 32.64275-32.64275zM667.641451 540.191466c18.009793 0 32.64275 14.632957 32.64275 32.64275v117.882282c0 18.009793-14.632957 32.64275-32.64275 32.642751s-32.64275-14.632957-32.64275-32.642751V572.834216c0-18.009793 14.632957-32.64275 32.64275-32.64275zM349.502548 245.48576c18.009793 0 32.64275 14.632957 32.64275 32.64275v117.882282c0 18.009793-14.632957 32.64275-32.64275 32.642751s-32.64275-14.632957-32.64275-32.642751V278.12851c-0.102328-18.009793 14.530629-32.64275 32.64275-32.64275zM349.502548 540.191466c18.009793 0 32.64275 14.632957 32.64275 32.64275v117.882282c0 18.009793-14.632957 32.64275-32.64275 32.642751s-32.64275-14.632957-32.64275-32.642751V572.834216c-0.102328-18.009793 14.530629-32.64275 32.64275-32.64275zM561.62926 245.48576c18.009793 0 32.64275 14.632957 32.64275 32.64275v117.882282c0 18.009793-14.632957 32.64275-32.64275 32.642751-18.009793 0-32.64275-14.632957-32.642751-32.642751V278.12851c-0.102328-18.009793 14.530629-32.64275 32.642751-32.64275zM561.62926 540.191466c18.009793 0 32.64275 14.632957 32.64275 32.64275v117.882282c0 18.009793-14.632957 32.64275-32.64275 32.642751-18.009793 0-32.64275-14.632957-32.642751-32.642751V572.834216c-0.102328-18.009793 14.530629-32.64275 32.642751-32.64275zM773.755971 540.191466c18.009793 0 32.64275 14.632957 32.64275 32.64275v176.823424c0 18.009793-14.632957 32.64275-32.64275 32.64275s-32.64275-14.632957-32.64275-32.64275V572.834216c-0.102328-18.009793 14.530629-32.64275 32.64275-32.64275z" p-id="10262"></path><path d="M325.660038 69.07165c18.009793 0 32.64275 14.632957 32.64275 32.64275S343.669831 134.35715 325.660038 134.35715H142.18527c-7.265314 0-13.20036 5.935045-13.200359 13.20036v183.474767c0 18.009793-14.632957 32.64275-32.642751 32.64275s-32.64275-14.632957-32.64275-32.64275V147.55751c0-43.387229 35.200959-78.588188 78.588189-78.588189h183.372439zM96.34216 665.236734c18.009793 0 32.64275 14.632957 32.642751 32.64275V881.354252c0 7.265314 5.935045 13.20036 13.200359 13.20036h183.474768c18.009793 0 32.64275 14.632957 32.64275 32.64275s-14.632957 32.64275-32.64275 32.64275H142.18527c-43.387229 0-78.588188-35.200959-78.588188-78.588188V697.981813c0.102328-18.112122 14.735285-32.745078 32.745078-32.745079zM921.927451 665.236734c18.009793 0 32.64275 14.632957 32.64275 32.64275V881.354252c0 43.387229-35.200959 78.588188-78.588188 78.588188H692.609573c-18.009793 0-32.64275-14.632957-32.64275-32.64275S674.59978 894.65694 692.609573 894.65694h183.474768c7.265314 0 13.20036-5.935045 13.20036-13.20036V697.981813c-0.102328-18.112122 14.530629-32.745078 32.64275-32.745079zM876.084341 69.07165c43.387229 0 78.588188 35.200959 78.588188 78.588188v183.474768c0 18.009793-14.632957 32.64275-32.64275 32.64275-18.009793 0-32.64275-14.632957-32.64275-32.64275V147.55751c0-7.265314-5.935045-13.20036-13.20036-13.20036H692.609573c-18.009793 0-32.64275-14.632957-32.64275-32.64275s14.632957-32.64275 32.64275-32.64275h183.474768z" p-id="10263"></path></svg>