<?xml version="1.0" standalone="no"?><!DOCTYPE svg PUBLIC "-//W3C//DTD SVG 1.1//EN" "http://www.w3.org/Graphics/SVG/1.1/DTD/svg11.dtd"><svg t="1779793051470" class="icon" viewBox="0 0 1024 1024" version="1.1" xmlns="http://www.w3.org/2000/svg" p-id="5790" xmlns:xlink="http://www.w3.org/1999/xlink" width="200" height="200"><path d="M512 64c-246.784 0-448 201.216-448 448s200.704 448 448 448c246.784 0 448-201.216 448-448S758.784 64 512 64z m220.16 623.104c-29.184 29.184-43.52 30.72-43.52 30.72-47.104 28.16-120.32 24.576-164.352-7.168 0 0-59.904-34.816-118.272-93.184-58.368-58.368-93.184-118.272-93.184-118.272-32.256-44.032-34.304-117.248-5.12-163.328 0 0 11.264-27.136 28.672-45.056 29.184-29.184 122.368 87.04 98.816 110.592-40.96 40.96-26.112 78.336 5.632 110.592l70.144 70.144c32.256 32.256 69.632 46.592 110.592 5.632 23.04-22.528 139.776 70.144 110.592 99.328z" p-id="5791"></path></svg>