<?xml version="1.0" standalone="no"?><!DOCTYPE svg PUBLIC "-//W3C//DTD SVG 1.1//EN" "http://www.w3.org/Graphics/SVG/1.1/DTD/svg11.dtd"><svg t="1779793131956" class="icon" viewBox="0 0 1024 1024" version="1.1" xmlns="http://www.w3.org/2000/svg" p-id="10570" xmlns:xlink="http://www.w3.org/1999/xlink" width="200" height="200"><path d="M512 56.88853333c251.34933333 0 455.11146667 203.76106667 455.11146667 455.11146667S763.34933333 967.11146667 512 967.11146667 56.88853333 763.34933333 56.88853333 512 260.65066667 56.88853333 512 56.88853333z m0 91.02293334c-201.08053333 0-364.08853333 163.008-364.08853333 364.08853333S310.91946667 876.08853333 512 876.08853333 876.08853333 713.08053333 876.08853333 512 713.08053333 147.91146667 512 147.91146667z m0 546.13333333c25.13493333 0 45.51146667 20.37546667 45.51146667 45.5104S537.13493333 785.06666667 512 785.06666667s-45.51146667-20.37546667-45.51146667-45.51146667 20.37653333-45.5104 45.51146667-45.5104zM512 238.93333333c87.97226667 0 159.28853333 71.3152 159.28853333 159.28853334 0 72.13866667-47.952 133.07626667-113.72053333 152.67626666l-0.05653333 0.01493334v52.1088C557.51146667 628.15786667 537.13493333 648.53333333 512 648.53333333s-45.51146667-20.37546667-45.51146667-45.51146666V512c0-25.13493333 20.37653333-45.51146667 45.51146667-45.51146667 37.7024 0 68.26666667-30.56426667 68.26666667-68.26666666s-30.56426667-68.26666667-68.26666667-68.26666667-68.26666667 30.56426667-68.26666667 68.26666667C443.73333333 423.35786667 423.35786667 443.73333333 398.22186667 443.73333333s-45.5104-20.37546667-45.5104-45.51146666C352.71146667 310.25066667 424.02666667 238.93333333 512 238.93333333z" p-id="10571"></path></svg>