<?xml version="1.0" standalone="no"?><!DOCTYPE svg PUBLIC "-//W3C//DTD SVG 1.1//EN" "http://www.w3.org/Graphics/SVG/1.1/DTD/svg11.dtd"><svg t="1779793046929" class="icon" viewBox="0 0 1024 1024" version="1.1" xmlns="http://www.w3.org/2000/svg" p-id="5482" xmlns:xlink="http://www.w3.org/1999/xlink" width="200" height="200"><path d="M511.28363 64.370977c-246.738357 0-446.707975 199.969618-446.707975 446.707976s199.969618 446.707975 446.707975 446.707975 446.707975-199.969618 446.707975-446.707975S758.021987 64.370977 511.28363 64.370977z m208.770737 492.043974H556.51729v163.537078c0 24.970618-20.263042 45.23366-45.335999 45.23366-24.970618 0-45.23366-20.263042-45.23366-45.23366V556.414951H302.410554c-24.970618 0-45.23366-20.263042-45.23366-45.23366s20.263042-45.23366 45.23366-45.23366h163.537077V302.308215c0-24.970618 20.263042-45.23366 45.23366-45.23366 24.970618 0 45.335998 20.263042 45.335999 45.23366v163.537078h163.537077c24.970618 0 45.23366 20.263042 45.23366 45.23366S745.024985 556.414951 720.054367 556.414951z" fill="" p-id="5483"></path></svg>