<?xml version="1.0" standalone="no"?><!DOCTYPE svg PUBLIC "-//W3C//DTD SVG 1.1//EN" "http://www.w3.org/Graphics/SVG/1.1/DTD/svg11.dtd"><svg t="1779793120970" class="icon" viewBox="0 0 1024 1024" version="1.1" xmlns="http://www.w3.org/2000/svg" p-id="9952" xmlns:xlink="http://www.w3.org/1999/xlink" width="200" height="200"><path d="M695.167783 480.124713H543.824123V328.781053c0-4.40012-3.581493-7.981613-7.981613-7.981613h-47.787349c-4.40012 0-7.981613 3.581493-7.981612 7.981613v151.34366H328.832217c-4.40012 0-7.981613 3.581493-7.981612 7.981613v47.787348c0 4.40012 3.581493 7.981613 7.981612 7.981613h151.34366V695.116618c0 4.40012 3.581493 7.981613 7.981613 7.981613h47.787349c4.40012 0 7.981613-3.581493 7.981612-7.981613V543.772959h151.34366c4.40012 0 7.981613-3.581493 7.981613-7.981613v-47.787349c-0.102328-4.297792-3.683821-7.879285-8.083941-7.879284z" p-id="9953"></path><path d="M512 66.001799C265.695613 66.001799 66.052963 265.644449 66.052963 511.948836s199.64265 445.947037 445.947037 445.947037S957.947037 758.253223 957.947037 511.948836 758.202059 66.001799 512 66.001799z m0 816.273408c-204.452084 0-370.326372-165.874288-370.326372-370.326371s165.874288-370.326372 370.326372-370.326372S882.326372 307.496752 882.326372 511.948836 716.452084 882.275207 512 882.275207z" p-id="9954"></path></svg>