<?xml version="1.0" standalone="no"?><!DOCTYPE svg PUBLIC "-//W3C//DTD SVG 1.1//EN" "http://www.w3.org/Graphics/SVG/1.1/DTD/svg11.dtd"><svg t="1779793118525" class="icon" viewBox="0 0 1024 1024" version="1.1" xmlns="http://www.w3.org/2000/svg" p-id="9797" xmlns:xlink="http://www.w3.org/1999/xlink" width="200" height="200"><path d="M695.884081 480.124713H328.01359c-4.40012 0-7.981613 3.581493-7.981612 7.981613v47.992005c0 4.40012 3.581493 7.981613 7.981612 7.981613h367.870491c4.40012 0 7.981613-3.581493 7.981613-7.981613v-47.992005c0-4.40012-3.581493-7.981613-7.981613-7.981613z" p-id="9798"></path><path d="M511.897672 64.262216c-247.327671 0-447.891276 200.563605-447.891276 447.891277s200.563605 447.891276 447.891276 447.891276 447.891276-200.563605 447.891276-447.891276-200.563605-447.891276-447.891276-447.891277z m0 819.752574C306.626961 884.01479 140.036375 717.424203 140.036375 512.051164s166.590587-371.861297 371.861297-371.861297 371.861297 166.590587 371.861297 371.861297-166.488258 371.963625-371.861297 371.963626z" p-id="9799"></path></svg>