<?xml version="1.0" standalone="no"?><!DOCTYPE svg PUBLIC "-//W3C//DTD SVG 1.1//EN" "http://www.w3.org/Graphics/SVG/1.1/DTD/svg11.dtd"><svg t="1779793056085" class="icon" viewBox="0 0 1024 1024" version="1.1" xmlns="http://www.w3.org/2000/svg" p-id="6098" xmlns:xlink="http://www.w3.org/1999/xlink" width="200" height="200"><path d="M511.28363 64.370977c-246.738357 0-446.707975 199.969618-446.707975 446.707976s199.969618 446.707975 446.707975 446.707975 446.707975-199.969618 446.707975-446.707975c0.102339-246.738357-199.969618-446.707975-446.707975-446.707976z m190.861483 577.803718c8.084749 8.084749 12.587647 18.93264 12.587647 30.394563s-4.502898 22.309814-12.587647 30.394564c-16.169498 16.169498-44.51729 16.271837-60.789127 0L510.976614 572.584449 379.676194 703.987208c-8.187088 8.187088-19.034979 12.689986-30.59924 12.689986-11.564261 0-22.412153-4.502898-30.599241-12.689986s-12.689986-19.034979-12.689986-30.599241c0-11.564261 4.502898-22.412153 12.689986-30.59924l131.30042-131.30042-130.379372-130.379372c-8.084749-8.084749-12.587647-18.93264-12.587648-30.394564s4.502898-22.309814 12.587648-30.394563c16.169498-16.271837 44.51729-16.271837 60.789126 0L510.669598 450.69918l132.323806-132.323805c16.374175-16.374175 44.824305-16.374175 61.198481 0 16.78353 16.885868 16.78353 44.312612 0 61.198481L571.765741 511.795323l130.379372 130.379372z" fill="" p-id="6099"></path></svg>