<?xml version="1.0" standalone="no"?><!DOCTYPE svg PUBLIC "-//W3C//DTD SVG 1.1//EN" "http://www.w3.org/Graphics/SVG/1.1/DTD/svg11.dtd"><svg t="1779793049373" class="icon" viewBox="0 0 1024 1024" version="1.1" xmlns="http://www.w3.org/2000/svg" p-id="5636" xmlns:xlink="http://www.w3.org/1999/xlink" width="200" height="200"><path d="M827.10054 194.75035C742.671197 110.321007 630.508095 63.859284 511.181291 63.859284S279.691385 110.321007 195.364381 194.75035C110.935039 279.179692 64.473316 391.342794 64.473316 510.669598S110.935039 742.159504 195.364381 826.588847 391.956826 957.479912 511.28363 957.479912s231.489906-46.461723 315.919248-130.891065 130.891065-196.592445 130.891066-315.919249-46.564062-231.489906-130.993404-315.919248z m-311.825705 526.020388c0 17.397561-14.122726 31.520288-31.520288 31.520287s-31.520288-14.122726-31.520288-31.520287v-22.719169c0-17.397561 14.122726-31.520288 31.520288-31.520288s31.520288 14.122726 31.520288 31.520288v22.719169z m37.558265-209.487108c-2.046772 1.023386-37.558265 20.979412-37.558265 81.768539v5.730961c0 17.397561-14.122726 31.520288-31.520288 31.520288s-31.520288-14.122726-31.520288-31.520288v-5.730961c0-100.701179 69.385569-136.622027 72.353388-138.054767 20.365381-10.23386 64.985009-41.447132 64.985009-67.952829 0-39.298021-30.803918-64.677993-78.391365-64.677993-78.391365 0-78.391365 24.151909-78.391365 37.251249 0 17.397561-14.122726 31.520288-31.520288 31.520288s-31.520288-14.122726-31.520288-31.520288c0-45.745353 24.561263-100.189486 141.431941-100.189486 83.303618 0 141.431941 52.4997 141.431941 127.61623 0 73.376774-95.277234 121.987607-99.780132 124.239057z" fill="" p-id="5637"></path></svg>