<?xml version="1.0" standalone="no"?><!DOCTYPE svg PUBLIC "-//W3C//DTD SVG 1.1//EN" "http://www.w3.org/Graphics/SVG/1.1/DTD/svg11.dtd"><svg t="1779793041891" class="icon" viewBox="0 0 1024 1024" version="1.1" xmlns="http://www.w3.org/2000/svg" p-id="5328" xmlns:xlink="http://www.w3.org/1999/xlink" width="200" height="200"><path d="M511.28363 64.370977C264.545273 64.370977 64.473316 264.340596 64.473316 511.078953s200.071957 446.707975 446.912652 446.707975 446.912652-199.969618 446.912653-446.707975c-0.102339-246.738357-200.174295-446.707975-447.014991-446.707976z m243.56586 329.530282L488.973816 689.148111c-8.596442 8.801119-19.649011 13.406356-31.315611 13.406356-14.327404 0-25.175295-4.502898-33.464721-12.792324l-156.271037-147.36758c-17.192884-17.4999-17.295223-45.335998-0.409355-62.324205 7.880072-7.982411 19.034979-12.587647 30.803918-12.587648 11.6666 0 22.923846 4.605237 30.803917 12.689986l125.876475 116.358985 237.323206-263.521887c16.885868-17.192884 46.257046-16.988207 62.324205-0.614031 16.681191 16.885868 16.681191 44.51729 0.204677 61.505496z" fill="" p-id="5329"></path></svg>