<?xml version="1.0" standalone="no"?><!DOCTYPE svg PUBLIC "-//W3C//DTD SVG 1.1//EN" "http://www.w3.org/Graphics/SVG/1.1/DTD/svg11.dtd"><svg t="1779793072841" class="icon" viewBox="0 0 1024 1024" version="1.1" xmlns="http://www.w3.org/2000/svg" p-id="6715" xmlns:xlink="http://www.w3.org/1999/xlink" width="200" height="200"><path d="M604.16 512l317.952-317.952c25.6-25.6 25.6-66.56 0-91.648-25.6-25.6-66.56-25.6-91.648 0L512 419.84 194.048 101.888c-25.6-25.6-66.56-25.6-91.648 0-25.6 25.6-25.6 66.56 0 91.648L419.84 512l-317.952 317.952c-25.6 25.6-25.6 66.56 0 91.648 25.6 25.6 66.56 25.6 91.648 0l318.464-317.44 317.952 317.952c25.6 25.6 66.56 25.6 91.648 0 25.6-25.6 25.6-66.56 0-91.648L604.16 512z" p-id="6716"></path></svg>