<?xml version="1.0" standalone="no"?><!DOCTYPE svg PUBLIC "-//W3C//DTD SVG 1.1//EN" "http://www.w3.org/Graphics/SVG/1.1/DTD/svg11.dtd"><svg t="1779793149362" class="icon" viewBox="0 0 1127 1024" version="1.1" xmlns="http://www.w3.org/2000/svg" p-id="11650" xmlns:xlink="http://www.w3.org/1999/xlink" width="220.1171875" height="200"><path d="M1031.55583731 433.42131991l-169.0355329-292.84263984C834.4238583 91.9238583 782.45685283 62 726.37817276 62H388.19289307C332 62 280.14720839 91.9238583 252.05076143 140.57868009l-169.03553291 292.84263984c-28.09644697 48.65482266-28.09644697 108.50253838 0 157.15736016l169.03553291 292.84263984c28.09644697 48.65482266 79.94923857 78.57868009 136.14213164 78.57868007h338.0710667c56.19289307 0 108.04568555-29.9238583 136.14213164-78.57868007l169.03553291-292.84263984c28.09644697-48.65482266 28.09644697-108.50253838 0-157.15736016z m-77.77918741 112.27157316l-169.0355329 292.84263984c-11.99238575 20.78680166-34.26395977 33.69289307-58.36294424 33.69289306H388.19289307c-24.09898448 0-46.2563455-12.79187842-58.36294424-33.69289306l-169.03553292-292.84263984c-11.99238575-20.78680166-11.99238575-46.48477148 0-67.38578614l169.14974679-292.84263984c11.99238575-20.78680166 34.26395977-33.69289307 58.36294423-33.69289307h338.07106583c24.09898448 0 46.2563455 12.79187842 58.36294423 33.69289307l169.03553291 292.84263984c11.99238575 20.78680166 11.99238575 46.48477148 0 67.38578614z" p-id="11651"></path><path d="M557.34263984 279.23350273c-128.48984737 0-232.65228427 104.16243692-232.65228427 232.65228428s104.16243692 232.65228427 232.65228427 232.65228426 232.65228427-104.16243692 232.65228428-232.65228426-104.16243692-232.65228427-232.65228428-232.65228428z m0 374.16243604c-78.12182724 0-141.51015263-63.38832451-141.51015263-141.51015176S479.2208126 370.37563438 557.34263984 370.37563438s141.51015263 63.38832451 141.51015177 141.51015263-63.38832451 141.51015263-141.51015177 141.51015176z" p-id="11652"></path></svg>