<?xml version="1.0" standalone="no"?><!DOCTYPE svg PUBLIC "-//W3C//DTD SVG 1.1//EN" "http://www.w3.org/Graphics/SVG/1.1/DTD/svg11.dtd"><svg t="1779793080874" class="icon" viewBox="0 0 1024 1024" version="1.1" xmlns="http://www.w3.org/2000/svg" p-id="7332" xmlns:xlink="http://www.w3.org/1999/xlink" width="200" height="200"><path d="M544.438093 65.387829c34.791646 0 68.048366 14.018987 92.197862 38.987109l186.237633 191.558708c23.330868 24.047167 36.4289 56.178275 36.4289 89.639653v483.706205c0 23.740182-9.107225 46.45708-25.479764 63.136605-16.270211 16.781853-38.373139 26.196063-61.397022 26.196062H251.47197c-23.023883 0-45.126811-9.41421-61.397022-26.196062S164.595183 892.917358 164.595183 869.279504V154.720496c0-23.740182 9.107225-46.45708 25.479765-63.136605s38.373139-26.196063 61.397022-26.196062h292.966123z m51.368842 283.961227h-20.465674c-36.019586 0-65.080843 29.163585-65.080843 65.080843v171.604677c-12.688718-9.107225-27.935645-13.712002-43.387229-13.405017-47.992006 0-86.876786 40.010393-86.876786 89.332667 0 49.322274 38.884781 89.332667 86.876786 89.332668s86.876786-40.010393 86.876786-89.332668V482.17128c0-23.944839 19.44239-43.387229 43.387229-43.387229s43.387229-19.44239 43.387229-43.387229v-1.22794c0-24.763466-20.056361-44.819826-44.717498-44.819826z" p-id="7333"></path></svg>