<?xml version="1.0" standalone="no"?><!DOCTYPE svg PUBLIC "-//W3C//DTD SVG 1.1//EN" "http://www.w3.org/Graphics/SVG/1.1/DTD/svg11.dtd"><svg t="1779793092681" class="icon" viewBox="0 0 1024 1024" version="1.1" xmlns="http://www.w3.org/2000/svg" p-id="7948" xmlns:xlink="http://www.w3.org/1999/xlink" width="200" height="200"><path d="M636.738283 104.272609l186.237634 191.558709c23.330868 24.047167 36.4289 56.178275 36.4289 89.639652v483.706206c0 23.740182-9.107225 46.45708-25.479765 63.136604-16.270211 16.781853-38.373139 26.196063-61.397022 26.196063H251.47197c-23.023883 0-45.126811-9.41421-61.397022-26.196063-16.270211-16.679524-25.479764-39.396423-25.479765-63.034276V154.618167c0-23.740182 9.107225-46.45708 25.479765-63.136604s38.373139-26.196063 61.397022-26.196063h293.068452c34.689317 0 67.946038 14.121315 92.197861 38.987109z m-176.004796 337.990607c-18.316778 74.69971-49.219946 145.613271-91.174578 209.466173 0 0-151.95763 81.248726-115.938044 142.031778 29.061257 48.196662 100.691116 0 162.395124-119.724193a775.863935 775.863935 0 0 1 184.088738-36.633556s167.61387 77.257919 190.637753-4.911762-132.822224-64.364545-160.655541-55.87129c-49.62926-35.200959-87.593085-85.239532-108.570401-143.362047 0 0 49.526931-176.41411-26.503047-174.162886-75.927651 2.251224-47.275707 139.882882-34.280004 183.167783m35.200959 44.717498c20.056361 42.977915 48.810633 80.941741 84.216249 111.640251-49.936245 9.823524-99.053862 23.330868-147.250525 40.21505 26.298391-47.787349 48.196662-98.030579 65.183172-150.115719M667.027481 610.184071c25.172779-7.162986 101.202758 6.651344 98.132907 21.488958-3.069851 14.735285-98.132907-21.488958-98.132907-21.488958m-307.496753 82.169681c-12.893375 37.861497-38.577796 69.583292-72.550814 89.332668-9.925852 0 30.493854-71.425202 72.550814-89.332668m136.403718-309.440991c0-3.172179-15.656241-98.235235 0-95.984011 23.433197 3.479165 0 92.811832 0 95.984011z" p-id="7949"></path></svg>