<?xml version="1.0" standalone="no"?><!DOCTYPE svg PUBLIC "-//W3C//DTD SVG 1.1//EN" "http://www.w3.org/Graphics/SVG/1.1/DTD/svg11.dtd"><svg t="1779793096523" class="icon" viewBox="0 0 1024 1024" version="1.1" xmlns="http://www.w3.org/2000/svg" p-id="8256" xmlns:xlink="http://www.w3.org/1999/xlink" width="200" height="200"><path d="M544.540422 64.05756c34.791646 0 68.150695 14.121315 92.504846 39.089437l186.749276 192.070351c23.433197 24.047167 36.531228 56.280604 36.531228 89.946637v485.036475c0 23.740182-9.209553 46.559408-25.479764 63.341261-16.372539 16.781853-38.475467 26.196063-61.601679 26.196063H250.755671c-23.126212 0-45.22914-9.41421-61.601679-26.196063-16.372539-16.781853-25.479764-39.601079-25.479764-63.341261V153.697212c0-23.740182 9.209553-46.559408 25.479764-63.341261s38.475467-26.196063 61.601679-26.196063h293.784751z m-93.732787 398.364345c-11.563106-7.469971-26.912361-4.093135-34.382333 7.469971L238.066953 747.304087c-2.558209 3.990806-3.990806 8.697911-3.990806 13.405017 0 13.712002 11.153792 24.865794 24.865794 24.865794h503.762566c5.116419 0 10.130509-1.534926 14.223643-4.502449 11.256121-7.879285 14.018987-23.433197 6.139703-34.689317L656.794644 565.978215c-1.637254-2.353553-3.78615-4.40012-6.139702-6.139702-11.256121-7.879285-26.810033-5.116419-34.689318 6.139702l-50.038573 71.425203L458.277606 469.891876c-1.944239-3.069851-4.502448-5.525732-7.469971-7.469971z m185.623663-149.501749c-41.238333 0-74.597382 33.461377-74.597382 74.597382s33.461377 74.597382 74.597382 74.597382 74.597382-33.461377 74.597382-74.597382-33.461377-74.597382-74.597382-74.597382z" p-id="8257"></path></svg>