<?xml version="1.0" standalone="no"?><!DOCTYPE svg PUBLIC "-//W3C//DTD SVG 1.1//EN" "http://www.w3.org/Graphics/SVG/1.1/DTD/svg11.dtd"><svg t="1779793098701" class="icon" viewBox="0 0 1024 1024" version="1.1" xmlns="http://www.w3.org/2000/svg" p-id="8410" xmlns:xlink="http://www.w3.org/1999/xlink" width="200" height="200"><path d="M859.81413 64.262216c54.950335 0 99.463176 44.512841 99.463176 99.463176v696.242231c0 54.950335-44.512841 99.463176-99.463176 99.463175H163.5719c-54.950335 0-99.463176-44.512841-99.463176-99.463175V163.725392c0-54.950335 44.512841-99.463176 99.463176-99.463176h696.24223zM333.948636 320.901769h-65.080843c-1.432597 0-2.865194 0.204657-4.195464 0.511642-9.618867 2.353553-15.553912 11.972419-13.200359 21.591286l92.709503 381.889477c1.944239 7.981613 9.107225 13.712002 17.395823 13.712002h90.867593c8.697911 0 16.167882-6.242031 17.600479-14.837614l44.308185-254.286c0.102328-0.716299 0.716299-1.125612 1.432597-1.125612s1.22794 0.511642 1.432597 1.125612L561.015289 723.768562c1.432597 8.595583 8.902568 14.837614 17.60048 14.837614h90.765264c8.288598 0 15.451584-5.62806 17.395823-13.712002L779.588688 343.004697c0.306985-1.432597 0.511642-2.762866 0.511642-4.195463 0-9.925852-7.981613-17.907465-17.907465-17.907465h-65.080843c-8.595583 0-15.963226 6.139702-17.60048 14.530628L622.923953 634.74288c-0.102328 0.716299-0.716299 1.125612-1.432597 1.125612s-1.330269-0.511642-1.432597-1.125612l-56.689917-299.310483c-1.637254-8.493255-9.004897-14.530629-17.60048-14.530628h-60.476067c-8.595583 0-15.963226 6.139702-17.600479 14.530628L411.001899 634.74288c-0.102328 0.716299-0.716299 1.125612-1.432598 1.125612s-1.330269-0.511642-1.432597-1.125612l-56.689917-299.310483c-1.534926-8.493255-8.902568-14.530629-17.498151-14.530628z" p-id="8411"></path></svg>