<?xml version="1.0" standalone="no"?><!DOCTYPE svg PUBLIC "-//W3C//DTD SVG 1.1//EN" "http://www.w3.org/Graphics/SVG/1.1/DTD/svg11.dtd"><svg t="1779793101280" class="icon" viewBox="0 0 1024 1024" version="1.1" xmlns="http://www.w3.org/2000/svg" p-id="8564" xmlns:xlink="http://www.w3.org/1999/xlink" width="200" height="200"><path d="M860.121115 64.364545c54.950335 0 99.463176 44.512841 99.463176 99.463176v696.24223c0 54.950335-44.512841 99.463176-99.463176 99.463176H163.878885c-54.950335 0-99.463176-44.512841-99.463176-99.463176V163.827721c0-54.950335 44.512841-99.463176 99.463176-99.463176h696.24223zM550.168482 309.031678H368.126312c-9.925852 0-17.907465 7.981613-17.907465 17.907465v381.889477c0 9.925852 7.981613 17.907465 17.907465 17.907465h62.624962c9.925852 0 17.907465-7.981613 17.907465-17.907465V579.383232h101.407415c43.796542 0 78.281203-11.767763 103.55631-35.20096 25.275107-23.433197 37.861497-56.689917 37.861497-99.667832 0-43.387229-12.58639-76.746278-37.861497-100.281803-25.172779-23.433197-59.65744-35.200959-103.453982-35.200959z m-8.902568 78.792845c19.851704 0 35.200959 5.321075 45.945438 16.065554s16.065554 24.251824 16.065554 40.624363c0 15.963226-5.321075 29.265914-16.065554 40.010393s-26.093734 16.065554-45.945438 16.065554h-74.597382c-9.925852 0-17.907465-7.981613-17.907465-17.907465v-76.950934c0-9.925852 7.981613-17.907465 17.907465-17.907465h74.597382z" p-id="8565"></path></svg>