<?xml version="1.0" standalone="no"?><!DOCTYPE svg PUBLIC "-//W3C//DTD SVG 1.1//EN" "http://www.w3.org/Graphics/SVG/1.1/DTD/svg11.dtd"><svg t="1779793083370" class="icon" viewBox="0 0 1024 1024" version="1.1" xmlns="http://www.w3.org/2000/svg" p-id="7486" xmlns:xlink="http://www.w3.org/1999/xlink" width="200" height="200"><path d="M544.438093 65.592485c34.689317 0 67.946038 14.018987 92.197862 38.987109L822.77126 296.035975c23.330868 24.047167 36.4289 56.178275 36.4289 89.639652V869.074848c0 23.637854-9.107225 46.354752-25.377436 63.136604-16.270211 16.781853-38.373139 26.196063-61.397022 26.196063H251.574298c-23.023883 0-45.126811-9.41421-61.397022-26.196063-16.270211-16.781853-25.377436-39.498751-25.377436-63.136604V154.822824c0-23.637854 9.107225-46.354752 25.377436-63.136604s38.373139-26.196063 61.397022-26.196063h292.863795z m100.998102 310.668932H371.503148v72.346158h93.732787v302.687319h86.467473V448.607575h93.732787v-72.346158z" p-id="7487"></path></svg>