<?xml version="1.0" standalone="no"?><!DOCTYPE svg PUBLIC "-//W3C//DTD SVG 1.1//EN" "http://www.w3.org/Graphics/SVG/1.1/DTD/svg11.dtd"><svg t="1779793087657" class="icon" viewBox="0 0 1024 1024" version="1.1" xmlns="http://www.w3.org/2000/svg" p-id="7640" xmlns:xlink="http://www.w3.org/1999/xlink" width="200" height="200"><path d="M860.223444 64.262216c54.950335 0 99.565504 44.512841 99.565504 99.565505v696.651544c0 54.950335-44.512841 99.565504-99.565504 99.565504H163.5719c-54.950335 0-99.565504-44.512841-99.565504-99.565504V163.725392c0-54.950335 44.512841-99.565504 99.565504-99.565504h696.651544zM406.397122 303.096632H337.530129c-3.683821 0-7.265314 1.125612-10.335165 3.274508-8.083941 5.730389-10.02818 16.884181-4.297792 24.968123l121.463775 172.218646c4.40012 6.139702 4.40012 14.4283 0 20.670331L325.762366 692.865394c-2.148896 2.967523-3.274508 6.651344-3.274508 10.335166 0 9.925852 7.981613 17.907465 17.907465 17.907464h70.094934c5.935045 0 11.460777-2.967523 14.837613-7.776956l84.727891-124.328969c0.409313-0.61397 1.125612-1.023284 1.841911-1.023284s1.432597 0.409313 1.84191 1.023284L598.467473 713.331068c3.376836 4.911762 8.902568 7.776956 14.837613 7.776956h70.708904c3.683821 0 7.265314-1.125612 10.335166-3.274507 8.083941-5.730389 10.02818-16.884181 4.40012-24.968123L580.048366 524.22824c-4.297792-6.139702-4.297792-14.4283 0-20.568002l121.054462-172.320975c2.148896-2.967523 3.274508-6.651344 3.274508-10.335166 0-9.925852-7.981613-17.907465-17.907465-17.907465h-68.969321c-5.832717 0-11.358449 2.865194-14.735286 7.674628l-88.923353 128.11512c-0.409313 0.61397-1.125612 1.023284-1.841911 1.023283s-1.432597-0.409313-1.841911-1.023283l-88.923353-128.11512c-3.479165-4.809433-8.902568-7.674628-14.837614-7.674628z" p-id="7641"></path></svg>