<?xml version="1.0" standalone="no"?><!DOCTYPE svg PUBLIC "-//W3C//DTD SVG 1.1//EN" "http://www.w3.org/Graphics/SVG/1.1/DTD/svg11.dtd"><svg t="1779793090239" class="icon" viewBox="0 0 1024 1024" version="1.1" xmlns="http://www.w3.org/2000/svg" p-id="7794" xmlns:xlink="http://www.w3.org/1999/xlink" width="200" height="200"><path d="M250.755671 64.05756c-23.126212 0-45.22914 9.41421-61.601679 26.196062s-25.479764 39.601079-25.479764 63.341262v716.605576c0 23.740182 9.209553 46.559408 25.479764 63.341261 16.372539 16.781853 38.475467 26.196063 61.601679 26.196063h522.488658c23.126212 0 45.22914-9.41421 61.601679-26.196063 16.372539-16.781853 25.479764-39.601079 25.479764-63.341261v-485.036475c0-33.563705-13.098031-65.797142-36.531228-89.946637L637.045268 103.146997c-24.251824-24.968122-57.610872-39.089437-92.504846-39.089437H250.755671z m348.325772 268.7143h-87.081443v89.537324h87.081443V511.948836h-87.081443v89.537324h87.081443V691.023484h-87.081443v-89.537324h-87.081443V511.948836h87.081443v-89.537324h-87.081443V332.874188h87.081443v-89.537324h-87.081443V153.79954h87.081443v89.537324h87.081443v89.434996z" p-id="7795"></path></svg>