<?xml version="1.0" standalone="no"?><!DOCTYPE svg PUBLIC "-//W3C//DTD SVG 1.1//EN" "http://www.w3.org/Graphics/SVG/1.1/DTD/svg11.dtd"><svg t="1779793103355" class="icon" viewBox="0 0 1024 1024" version="1.1" xmlns="http://www.w3.org/2000/svg" p-id="8718" xmlns:xlink="http://www.w3.org/1999/xlink" width="200" height="200"><path d="M544.540422 64.05756c34.791646 0 68.150695 14.121315 92.504846 39.089437l186.749276 192.070351c23.433197 24.047167 36.531228 56.280604 36.531228 89.946637v485.036475c0 23.740182-9.209553 46.559408-25.479764 63.341261-16.372539 16.781853-38.475467 26.196063-61.601679 26.196063H250.755671c-23.126212 0-45.22914-9.41421-61.601679-26.196063-16.372539-16.781853-25.479764-39.601079-25.479764-63.341261V153.697212c0-23.740182 9.209553-46.559408 25.479764-63.341261s38.475467-26.196063 61.601679-26.196063h293.784751z m-10.437494 600.872189h-84.625562v87.081443h84.625562v-87.081443z m-47.07105-292.352153c-31.312481 0-57.610872 3.274508-78.895174 9.721195v66.615769c18.82842-6.139702 40.010393-9.107225 63.750575-9.107225 14.632957 0 25.889078 1.125612 33.666034 3.274508 7.879285 2.148896 13.405016 6.037374 16.679524 11.563106s5.01409 13.712002 5.01409 24.45648c0 11.460777-1.841911 20.568002-5.525732 27.424003-3.683821 6.856001-11.051464 14.837614-22.205256 24.149496-15.656241 14.018987-26.298391 26.196063-31.824123 36.531228-5.525732 10.437494-8.390926 23.126212-8.390927 38.168482v24.149495h63.750575v-12.381733c0-9.311882 2.455881-17.498151 7.265314-24.45648s15.144599-16.372539 30.80084-28.24263c12.58639-9.721195 22.0006-18.623763 28.447287-26.912362 6.446687-8.288598 11.153792-17.702808 14.121315-28.447287 2.967523-10.744479 4.40012-24.558809 4.40012-41.340661 0-25.070451-4.093135-44.410513-12.279405-58.020186-8.18627-13.609673-20.977316-23.22854-38.373139-28.754272s-40.726691-8.390926-70.401918-8.390926z" p-id="8719"></path></svg>