<?xml version="1.0" standalone="no"?><!DOCTYPE svg PUBLIC "-//W3C//DTD SVG 1.1//EN" "http://www.w3.org/Graphics/SVG/1.1/DTD/svg11.dtd"><svg t="1779793094656" class="icon" viewBox="0 0 1024 1024" version="1.1" xmlns="http://www.w3.org/2000/svg" p-id="8102" xmlns:xlink="http://www.w3.org/1999/xlink" width="200" height="200"><path d="M250.755671 64.05756c-23.126212 0-45.22914 9.41421-61.601679 26.196062s-25.479764 39.601079-25.479764 63.341262v716.605576c0 23.740182 9.209553 46.559408 25.479764 63.341261 16.372539 16.781853 38.475467 26.196063 61.601679 26.196063h522.488658c23.126212 0 45.22914-9.41421 61.601679-26.196063 16.372539-16.781853 25.479764-39.601079 25.479764-63.341261v-485.036475c0-33.563705-13.098031-65.797142-36.531228-89.946637L637.045268 103.146997c-24.251824-24.968122-57.610872-39.089437-92.504846-39.089437H250.755671z m374.931148 519.009493L450.193664 688.362946c-11.767763 7.060658-27.117018 3.274508-34.177675-8.493255-2.353553-3.888478-3.581493-8.288598-3.581493-12.791046V456.384531c0-13.712002 11.153792-24.865794 24.865794-24.865794 4.502448 0 8.902568 1.22794 12.791046 3.581493l175.595483 105.295893c11.767763 7.060658 15.553912 22.307585 8.493255 34.177675-2.046567 3.479165-5.01409 6.344359-8.493255 8.493255z" p-id="8103"></path></svg>