<?xml version="1.0" standalone="no"?><!DOCTYPE svg PUBLIC "-//W3C//DTD SVG 1.1//EN" "http://www.w3.org/Graphics/SVG/1.1/DTD/svg11.dtd"><svg t="1779793112484" class="icon" viewBox="0 0 1024 1024" version="1.1" xmlns="http://www.w3.org/2000/svg" p-id="9334" xmlns:xlink="http://www.w3.org/1999/xlink" width="200" height="200"><path d="M917.834316 98.337564H105.040072c-34.893974 0.818627-53.415409 41.954632-30.493854 68.662336L389.205956 534.461077v269.32827c0 15.860897 9.004897 30.289198 23.22854 37.349856L574.727291 921.262316l0.818627 0.409314c27.424003 12.893375 59.145798-7.162986 59.145798-37.65684V534.461077L949.453782 166.9999c23.126212-27.01469 3.990806-68.662336-31.619466-68.662336zM561.526931 491.994804l-0.409313 0.511641c-6.139702 7.469971-9.618867 16.884181-9.618867 26.605377v297.877885l-79.202159-39.089437V518.497852c-0.102328-9.721195-3.683821-19.033077-10.02818-26.40072L196.521635 181.530529h631.059059l-266.053763 310.464275z" p-id="9335"></path><path d="M906.475867 546.126511H704.377336c-16.372539 0-29.675227 13.302688-29.675227 29.675228s13.302688 29.675227 29.675227 29.675227H906.475867c16.372539 0 29.675227-13.302688 29.675227-29.675227s-13.302688-29.675227-29.675227-29.675228zM906.475867 681.404617H704.377336c-16.372539 0-29.675227 13.302688-29.675227 29.675227s13.302688 29.675227 29.675227 29.675227H906.475867c16.372539 0 29.675227-13.302688 29.675227-29.675227s-13.302688-29.675227-29.675227-29.675227zM906.475867 816.682722H704.377336c-16.372539 0-29.675227 13.302688-29.675227 29.675227s13.302688 29.675227 29.675227 29.675228H906.475867c16.372539 0 29.675227-13.302688 29.675227-29.675228s-13.302688-29.675227-29.675227-29.675227z" p-id="9336"></path></svg>