<?xml version="1.0" standalone="no"?><!DOCTYPE svg PUBLIC "-//W3C//DTD SVG 1.1//EN" "http://www.w3.org/Graphics/SVG/1.1/DTD/svg11.dtd"><svg t="1779792956265" class="icon" viewBox="0 0 1028 1024" version="1.1" xmlns="http://www.w3.org/2000/svg" p-id="3120" xmlns:xlink="http://www.w3.org/1999/xlink" width="200.78125" height="200"><path d="M353.51 372.725c-50.76 0-88.2 42.57-88.2 90.36v408.6c0 47.745 37.44 90.315 88.2 90.315h524.61c50.76 0 88.2-42.57 88.2-90.36V463.085c0-47.79-37.44-90.36-88.2-90.36H353.51z m522.45 498.915H355.715V463.085H875.96v408.6zM505.61 153.035a622.935 622.935 0 0 0-30.915 0.18c-43.83 1.35-103.41 7.695-163.8 28.755-60.57 21.15-123.57 57.6-171.27 119.835C91.61 364.4 62 449.45 62 562.13a45.225 45.225 0 1 0 90.405 0c0-96.255 24.975-161.01 58.95-205.335 34.29-44.73 80.64-72.45 129.33-89.46 48.87-17.01 98.55-22.635 136.71-23.76 10.485-0.315 19.98-0.225 28.215 0v95.895l249.75-142.875L505.61 62v91.035z" p-id="3121"></path></svg>