<?xml version="1.0" standalone="no"?><!DOCTYPE svg PUBLIC "-//W3C//DTD SVG 1.1//EN" "http://www.w3.org/Graphics/SVG/1.1/DTD/svg11.dtd"><svg t="1779792951941" class="icon" viewBox="0 0 1074 1024" version="1.1" xmlns="http://www.w3.org/2000/svg" p-id="2965" xmlns:xlink="http://www.w3.org/1999/xlink" width="209.765625" height="200"><path d="M774.34597158 448.0046501c0-166.70527559-135.98963526-302.26592198-304.28217246-302.26592198s-304.32507099 135.56064638-304.32507099 302.26592198 136.03253467 302.26592198 304.32507099 302.26592197c168.29253633 0 304.28217246-135.56064638 304.28217246-302.26592197z m81.6795791 0c0 212.30684737-173.01142002 383.94550107-385.96175156 383.94550107-212.95033154 0-386.0046501-171.63865371-386.0046501-383.94550107 0-212.26394883 173.05431855-383.94550107 386.0046501-383.94550107 212.95033154 0 385.96175156 171.68155224 385.96175156 383.94550107z" p-id="2966"></path><path d="M707.38072801 675.75511602a40.88268896 40.88268896 0 0 1 57.78487003 1.41566484l204.19894864 214.49469287a40.88268896 40.88268896 0 1 1-59.20053575 56.28340811l-204.19894775-214.45179434a40.88268896 40.88268896 0 0 1 1.41566485-57.74197148zM653.84285253 407.16486055a40.83978955 40.83978955 0 0 1 0 81.6795791H286.19894775a40.83978955 40.83978955 0 0 1 0-81.6795791h367.64390479z" p-id="2967"></path></svg>