<?xml version="1.0" standalone="no"?><!DOCTYPE svg PUBLIC "-//W3C//DTD SVG 1.1//EN" "http://www.w3.org/Graphics/SVG/1.1/DTD/svg11.dtd"><svg t="1779792960134" class="icon" viewBox="0 0 1029 1024" version="1.1" xmlns="http://www.w3.org/2000/svg" p-id="3274" xmlns:xlink="http://www.w3.org/1999/xlink" width="200.9765625" height="200"><path d="M674.9 372.725c50.76 0 88.2 42.57 88.2 90.36v408.6c0 47.745-37.44 90.315-88.2 90.315H150.245c-50.76 0-88.2-42.57-88.2-90.36V463.085c0-47.79 37.44-90.36 88.2-90.36H674.9zM152.45 871.64h520.245V463.085H152.45v408.6z m370.35-718.605c9.225-0.18 19.575-0.135 30.915 0.18 43.83 1.35 103.41 7.695 163.8 28.755 60.57 21.15 123.57 57.6 171.27 119.835 47.97 62.595 77.625 147.6 77.625 260.325a45.225 45.225 0 0 1-90.405 0c0-96.255-24.975-161.01-58.95-205.335-34.29-44.73-80.64-72.45-129.285-89.46-48.915-17.01-98.595-22.635-136.755-23.76a526.5 526.5 0 0 0-28.215 0v95.895L273.05 196.595 522.8 62v91.035z" p-id="3275"></path></svg>