<?xml version="1.0" standalone="no"?><!DOCTYPE svg PUBLIC "-//W3C//DTD SVG 1.1//EN" "http://www.w3.org/Graphics/SVG/1.1/DTD/svg11.dtd"><svg t="1779792944219" class="icon" viewBox="0 0 1024 1024" version="1.1" xmlns="http://www.w3.org/2000/svg" p-id="2809" xmlns:xlink="http://www.w3.org/1999/xlink" width="200" height="200"><path d="M747.2173168 447.4487955a299.76852041 299.76852041 0 1 0-599.5370417 1e-8 299.76852041 299.76852041 0 0 0 599.5370417 0z m85.6802751 1e-8A385.4487955 385.4487955 0 1 1 62 447.4487955a385.4487955 385.4487955 0 0 1 770.8975919 1e-8z" p-id="2810"></path><path d="M674.13046748 674.13046748a42.81764942 42.81764942 0 0 1 60.53839981 0l214.13322245 214.08824619a42.81764942 42.81764942 0 1 1-60.5383998 60.58337607l-214.13322246-214.08824618a42.81764942 42.81764942 0 0 1 0-60.58337608zM618.76436943 404.63114697a42.81764942 42.81764942 0 1 1 0 85.63529795H276.08824619a42.81764942 42.81764942 0 0 1 0-85.63529795h342.6311461z" p-id="2811"></path><path d="M404.63114697 618.76436943V276.08824619a42.81764942 42.81764942 0 0 1 85.63529795 0v342.6311461a42.81764942 42.81764942 0 1 1-85.63529795 0z" p-id="2812"></path></svg>