<?xml version="1.0" standalone="no"?><!DOCTYPE svg PUBLIC "-//W3C//DTD SVG 1.1//EN" "http://www.w3.org/Graphics/SVG/1.1/DTD/svg11.dtd"><svg t="1779793058798" class="icon" viewBox="0 0 1024 1024" version="1.1" xmlns="http://www.w3.org/2000/svg" p-id="6252" xmlns:xlink="http://www.w3.org/1999/xlink" width="200" height="200"><path d="M849.5 202.625H354.5c-14.0625 0-28.125 5.625-39.375 16.875L87.3125 452.9375c-16.875 14.0625-25.3125 36.5625-25.3125 59.0625s8.4375 45 25.3125 59.0625L315.125 804.5c11.25 11.25 25.3125 16.875 39.375 16.875H849.5c61.875 0 112.5-50.625 112.5-112.5V315.125c0-61.875-50.625-112.5-112.5-112.5z m56.25 506.25c0 30.9375-25.3125 56.25-56.25 56.25H354.5l-227.8125-233.4375c-5.625-5.625-8.4375-11.25-8.4375-19.6875s2.8125-14.0625 8.4375-19.6875L354.5 258.875H849.5c30.9375 0 56.25 25.3125 56.25 56.25v393.75z" p-id="6253"></path><path d="M728.5625 379.8125c-11.25-11.25-28.125-11.25-39.375 0L596.375 472.625l-92.8125-92.8125c-11.25-11.25-28.125-11.25-39.375 0-11.25 11.25-11.25 28.125 0 39.375l92.8125 92.8125-92.8125 92.8125c-11.25 11.25-11.25 28.125 0 39.375 11.25 11.25 28.125 11.25 39.375 0l92.8125-92.8125 92.8125 92.8125c11.25 11.25 28.125 11.25 39.375 0 11.25-11.25 11.25-28.125 0-39.375L635.75 512l92.8125-92.8125c11.25-11.25 11.25-28.125 0-39.375z" p-id="6254"></path></svg>