<?xml version="1.0" standalone="no"?><!DOCTYPE svg PUBLIC "-//W3C//DTD SVG 1.1//EN" "http://www.w3.org/Graphics/SVG/1.1/DTD/svg11.dtd"><svg t="1779793108802" class="icon" viewBox="0 0 1024 1024" version="1.1" xmlns="http://www.w3.org/2000/svg" p-id="9026" xmlns:xlink="http://www.w3.org/1999/xlink" width="200" height="200"><path d="M956.207 474.087h-122.18c-17.293-146.33-133.333-262.37-279.663-279.663V72.244c0-4.4-3.582-7.982-7.982-7.982h-59.964c-4.4 0-7.982 3.582-7.982 7.982v122.18c-146.432 17.293-262.472 133.334-279.765 279.663H76.49c-4.4 0-7.982 3.582-7.982 7.982v59.964c0 4.4 3.581 7.982 7.981 7.982h122.18c17.294 146.33 133.334 262.37 279.664 279.663v122.283c0 4.4 3.581 7.981 7.982 7.981h59.964c4.4 0 7.982-3.581 7.982-7.981V829.78c146.33-17.294 262.37-133.334 279.663-279.664h122.18c4.4 0 7.982-3.581 7.982-7.981V482.17a7.865 7.865 0 0 0-7.88-8.084z m-439.91 281.915c-134.766 0-243.95-109.184-243.95-243.95s109.184-243.85 243.95-243.85S760.25 377.388 760.25 512.154 651.064 756.002 516.298 756.002z m0-363.88c-32.13 0-62.113 12.382-84.727 35.201-22.717 22.717-35.201 52.7-35.201 84.728s12.484 62.113 35.2 84.728c22.718 22.615 52.802 35.201 84.729 35.201 32.029 0 62.113-12.484 84.728-35.2 22.614-22.718 35.2-52.802 35.2-84.729s-12.483-62.113-35.2-84.728c-22.615-22.819-52.597-35.2-84.728-35.2z" p-id="9027"></path></svg>