<?xml version="1.0" standalone="no"?><!DOCTYPE svg PUBLIC "-//W3C//DTD SVG 1.1//EN" "http://www.w3.org/Graphics/SVG/1.1/DTD/svg11.dtd"><svg t="1779793074839" class="icon" viewBox="0 0 1024 1024" version="1.1" xmlns="http://www.w3.org/2000/svg" p-id="6869" xmlns:xlink="http://www.w3.org/1999/xlink" width="200" height="200"><path d="M843.850904 448.709903c-1.432597 0-2.967523 0.102328-4.40012 0.204657-3.888478-0.102328-7.776956-0.204657-11.563105-0.204657-132.003597 0-251.11382 55.25732-335.534726 143.77136v-309.031678l114.710103 114.710103c24.865794 24.865794 65.490157 24.865794 90.355951 0 24.865794-24.865794 24.865794-65.490157 0-90.355951L476.492056 86.876786c-0.920955-1.023284-1.841911-2.046567-2.762866-2.967522-12.484061-12.484061-28.8566-18.623763-45.22914-18.623764-16.372539 0-32.847407 6.139702-45.22914 18.623764-0.920955 0.920955-1.841911 1.944239-2.762866 2.967522L159.478765 307.701409c-24.865794 24.865794-24.865794 65.490157 0 90.355951 24.865794 24.865794 65.490157 24.865794 90.355951 0l114.710103-114.710103v612.639952c0 35.098631 28.754272 63.955231 63.955231 63.955231s63.955231-28.754272 63.955231-63.955231h0.409314C501.255521 718.140502 648.096732 576.415709 827.990007 576.415709c5.321075 0 10.64215 0.102328 15.963226 0.409313v-0.409313c35.303288 0 63.955231-28.651944 63.955231-63.955231s-28.8566-63.750575-64.05756-63.750575z" p-id="6870"></path></svg>