<?xml version="1.0" standalone="no"?><!DOCTYPE svg PUBLIC "-//W3C//DTD SVG 1.1//EN" "http://www.w3.org/Graphics/SVG/1.1/DTD/svg11.dtd"><svg t="1779793110508" class="icon" viewBox="0 0 1024 1024" version="1.1" xmlns="http://www.w3.org/2000/svg" p-id="9180" xmlns:xlink="http://www.w3.org/1999/xlink" width="200" height="200"><path d="M946.997901 884.935745L790.947137 728.884981c56.48526-70.094934 90.355951-159.222944 90.355951-256.230239 0-225.634056-182.963126-408.597182-408.597182-408.597182S64.108724 247.020686 64.108724 472.654742s182.963126 408.597182 408.597182 408.597182c97.007295 0 186.135305-33.870691 256.230239-90.355951L884.986909 946.946737c17.088838 17.088838 44.922154 17.088838 62.010992 0 17.088838-17.088838 17.088838-44.922154 0-62.010992zM151.804137 472.654742c0-177.232737 143.669032-320.901769 320.901769-320.901769s320.901769 143.669032 320.901769 320.901769-143.669032 320.901769-320.901769 320.901768-320.901769-143.669032-320.901769-320.901768z" p-id="9181"></path></svg>