<?xml version="1.0" standalone="no"?><!DOCTYPE svg PUBLIC "-//W3C//DTD SVG 1.1//EN" "http://www.w3.org/Graphics/SVG/1.1/DTD/svg11.dtd"><svg t="1780733578155" class="icon" viewBox="0 0 1024 1024" version="1.1" xmlns="http://www.w3.org/2000/svg" p-id="31463" xmlns:xlink="http://www.w3.org/1999/xlink" width="200" height="200"><path d="M836.892575 682.325572c17.293495-17.293495 46.047767-17.293495 63.238933 0 17.293495 17.293495 17.293495 46.047767 0 63.238933L704.581993 941.11402C670.097332 969.868292 624.049565 946.844409 624.049565 912.359748V107.34246c0-23.023883 17.293495-40.215049 46.047767-40.215049 23.023883 0 46.047767 17.293495 46.047766 40.215049v695.832917l120.747477-120.849805zM187.107425 354.567803c-17.293495 17.293495-46.047767 17.293495-63.238933 0s-17.293495-46.047767 0-63.238933l195.447187-212.740682c23.023883-28.754272 74.802039-5.730389 74.802039 28.754272v805.119617c0 23.023883-17.293495 46.047767-46.047767 46.047766-23.023883 0-46.047767-17.293495-46.047767-46.047766V222.359548L187.107425 354.567803z" p-id="31464"></path></svg>