<?xml version="1.0" standalone="no"?><!DOCTYPE svg PUBLIC "-//W3C//DTD SVG 1.1//EN" "http://www.w3.org/Graphics/SVG/1.1/DTD/svg11.dtd"><svg t="1779793147479" class="icon" viewBox="0 0 1056 1024" version="1.1" xmlns="http://www.w3.org/2000/svg" p-id="11496" xmlns:xlink="http://www.w3.org/1999/xlink" width="206.25" height="200"><path d="M987.59292031 397.46902695c-8.07079658-23.15044248-28.67256651-40.14159258-53.52212373-43.85840713l-241.69911504-35.89380527-105.13274326-218.12389453C576.19469023 76.654867 552.51327412 62 526.4955749 62s-49.69911533 14.65486699-60.7433625 37.59292002l-105.02654853 218.12389453-241.69911504 35.89380527c-24.84955722 3.71681455-45.45132714 20.70796465-53.52212373 43.85840713-7.96460185 23.25663721-1.9115042 48.84955752 15.61061953 66.37168125l177.13274326 176.81415909-41.09734511 245.30973485c-4.14159258 24.7433625 6.58407041 49.48672588 27.50442451 63.92920343 11.5752208 7.96460185 25.06194667 11.99999971 38.65486728 11.9999997s22.30088467-2.76106201 32.4955749-8.17699131l210.69026543-113.41592929 210.79646016 113.41592929c10.0884955 5.4159293 21.345133 8.17699131 32.38938106 8.17699132s27.0796456-4.03539785 38.65486728-11.99999971c21.02654883-14.44247753 31.64601797-39.29203565 27.50442451-63.92920343l-41.09734512-245.30973485 177.23893799-176.81415909c17.52212373-17.52212373 23.46902666-43.11504404 15.61061953-66.37168125z" p-id="11497"></path></svg>