<?xml version="1.0" standalone="no"?><!DOCTYPE svg PUBLIC "-//W3C//DTD SVG 1.1//EN" "http://www.w3.org/Graphics/SVG/1.1/DTD/svg11.dtd"><svg t="1780966463885" class="icon" viewBox="0 0 1024 1024" version="1.1" xmlns="http://www.w3.org/2000/svg" p-id="2839" xmlns:xlink="http://www.w3.org/1999/xlink" width="200" height="200"><path d="M448.345393 509.543874c0 35.102139 28.552469 63.654607 63.654607 63.654607 35.102139 0 63.654607-28.552469 63.654607-63.654607s-28.552469-63.654607-63.654607-63.654608c-35.102139 0-63.654607 28.552469-63.654607 63.654608zM746.355387 514.456126c0 35.102139 28.552469 63.654607 63.654607 63.654608 35.102139 0 63.654607-28.552469 63.654607-63.654608s-28.552469-63.654607-63.654607-63.654607c-35.102139 0-63.654607 28.552469-63.654607 63.654607zM277.644613 514.456126c0-35.102139-28.552469-63.654607-63.654607-63.654607s-63.654607 28.552469-63.654607 63.654607 28.552469 63.654607 63.654607 63.654608 63.654607-28.552469 63.654607-63.654608z" p-id="2840"></path></svg>