<?xml version="1.0" standalone="no"?><!DOCTYPE svg PUBLIC "-//W3C//DTD SVG 1.1//EN" "http://www.w3.org/Graphics/SVG/1.1/DTD/svg11.dtd"><svg t="1779793116307" class="icon" viewBox="0 0 1024 1024" version="1.1" xmlns="http://www.w3.org/2000/svg" p-id="9643" xmlns:xlink="http://www.w3.org/1999/xlink" width="200" height="200"><path d="M950.579394 816.273409H73.318277c-4.911762 0-8.902568 3.990806-8.902568 8.902568v71.629859c0 4.911762 3.990806 8.902568 8.902568 8.902568h877.261117c4.911762 0 8.902568-3.990806 8.902569-8.902568v-71.629859c0.102328-4.809433-3.990806-8.902568-8.902569-8.902568zM950.579394 118.086939H73.318277c-4.911762 0-8.902568 3.990806-8.902568 8.902568v71.629859c0 4.911762 3.990806 8.902568 8.902568 8.902569h877.261117c4.911762 0 8.902568-3.990806 8.902569-8.902569v-71.629859c0.102328-4.911762-3.990806-8.902568-8.902569-8.902568zM950.579394 467.231338H73.318277c-4.911762 0-8.902568 3.990806-8.902568 8.902568v71.629859c0 4.911762 3.990806 8.902568 8.902568 8.902569h877.261117c4.911762 0 8.902568-3.990806 8.902569-8.902569v-71.629859c0.102328-4.911762-3.990806-8.902568-8.902569-8.902568z" p-id="9644"></path></svg>