<?xml version="1.0" standalone="no"?><!DOCTYPE svg PUBLIC "-//W3C//DTD SVG 1.1//EN" "http://www.w3.org/Graphics/SVG/1.1/DTD/svg11.dtd"><svg t="1779793078718" class="icon" viewBox="0 0 1024 1024" version="1.1" xmlns="http://www.w3.org/2000/svg" p-id="7177" xmlns:xlink="http://www.w3.org/1999/xlink" width="200" height="200"><path d="M671.939243 115.324073v-0.102328c0-28.24263-22.921555-51.164185-51.164186-51.164185H403.224943c-28.344959 0-51.266513 22.921555-51.266514 51.266513v76.746278H128.063955v63.955231h63.955232v639.961627c0 35.303288 28.651944 63.955231 63.955231 63.955231h511.948836c35.303288 0 63.955231-28.651944 63.955231-63.955231V256.025582h64.05756v-63.955231H671.939243v-76.746278z m-255.923254 12.791046h191.968022v63.955232H416.015989v-63.955232z m351.907265 127.910463v639.961627H255.974418V256.025582h511.948836z" fill-opacity=".9" p-id="7178"></path><path d="M575.955231 384.038373h63.955232v383.936045H575.955231zM383.987209 384.038373h63.955231v383.936045h-63.955231z" fill-opacity=".9" p-id="7179"></path></svg>