<?xml version="1.0" standalone="no"?><!DOCTYPE svg PUBLIC "-//W3C//DTD SVG 1.1//EN" "http://www.w3.org/Graphics/SVG/1.1/DTD/svg11.dtd"><svg t="1779793106525" class="icon" viewBox="0 0 1024 1024" version="1.1" xmlns="http://www.w3.org/2000/svg" p-id="8872" xmlns:xlink="http://www.w3.org/1999/xlink" width="200" height="200"><path d="M905.04327 109.90067c-24.047167 0-43.591886 19.544719-43.591886 43.694214v89.74198C781.839912 134.561807 655.055061 64.05756 512 64.05756c-120.338163 0-232.89937 50.24323-314.659738 137.324672-16.474868 17.60048-15.656241 45.22914 1.944239 61.806336 17.60048 16.474868 45.22914 15.656241 61.704007-1.944239 65.490157-69.68562 155.129809-109.696013 250.909164-109.696013 192.684321 0 349.349056 161.167183 349.349055 360.502848 0 3.172179 0.306985 6.242031 0.920956 9.209553 3.990806 19.954032 21.591286 34.996303 42.773258 34.996303 24.047167 0 43.591886-19.544719 43.591886-43.694214V153.594884c0.102328-24.149495-19.44239-43.694214-43.489557-43.694214zM754.108924 771.760568c-64.67153 64.262216-150.627361 100.691116-242.211252 100.691116C319.213351 872.451684 162.548616 711.284501 162.548616 511.948836c0-3.172179-0.306985-6.242031-0.920955-9.209553-3.990806-19.954032-21.591286-34.996303-42.773259-34.996303-24.047167 0-43.591886 19.544719-43.591886 43.694214v358.865594c0 24.149495 19.544719 43.694214 43.591886 43.694214s43.591886-19.544719 43.591886-43.694214v-89.741981c79.611472 108.775057 206.396323 179.279304 349.451384 179.279305 114.91476 0 222.87119-45.740781 303.710602-126.068552 17.088838-16.986509 17.191166-44.615169 0.204657-61.806336s-44.512841-17.191166-61.704007-0.204656z" p-id="8873"></path></svg>