<?xml version="1.0" standalone="no"?><!DOCTYPE svg PUBLIC "-//W3C//DTD SVG 1.1//EN" "http://www.w3.org/Graphics/SVG/1.1/DTD/svg11.dtd"><svg t="1779793076757" class="icon" viewBox="0 0 1024 1024" version="1.1" xmlns="http://www.w3.org/2000/svg" p-id="7023" xmlns:xlink="http://www.w3.org/1999/xlink" width="200" height="200"><path d="M910.569002 302.994304l-127.501149 73.47177v-151.445988c0-35.200959-28.549615-63.750575-63.750575-63.750575H129.394224c-35.200959 0-63.750575 28.549615-63.750575 63.750575v573.959828c0 35.200959 28.549615 63.750575 63.750575 63.750575H719.21495c35.200959 0 63.750575-28.549615 63.750574-63.750575v-151.445988L910.569002 720.903368c21.181973 12.279404 47.787349-3.069851 47.787349-27.526332V330.622964c0-24.558809-26.605376-39.908064-47.787349-27.62866z m-581.941441 49.526931c0 4.40012-3.581493 7.981613-7.981613 7.981613h-111.537924c-4.40012 0-7.981613-3.581493-7.981612-7.981613v-47.787349c0-4.40012 3.581493-7.981613 7.981612-7.981613h111.640252c4.40012 0 7.981613 3.581493 7.981613 7.981613v47.787349zM886.624163 624.510043l-103.658639-59.555111V459.045068L886.624163 399.387629v225.122414z" p-id="7024"></path></svg>